<svg width="179" height="179" viewBox="0 0 179 179" fill="none" xmlns="http://www.w3.org/2000/svg">
<rect x="0.116211" y="0.273926" width="177.95" height="177.95" rx="88.9751" fill="white"/>
<g clip-path="url(#clip0_38_6949)">
<path d="M61.4999 51.5C61.4999 50.837 61.7633 50.2011 62.2322 49.7322C62.701 49.2634 63.3369 49 63.9999 49H114C114.663 49 115.299 49.2634 115.768 49.7322C116.237 50.2011 116.5 50.837 116.5 51.5C116.5 54.19 116.44 56.75 116.33 59.18C118.306 59.5072 120.196 60.2266 121.889 61.2959C123.582 62.3652 125.044 63.7627 126.189 65.406C127.333 67.0494 128.137 68.9052 128.553 70.8641C128.968 72.8231 128.988 74.8454 128.609 76.8119C128.231 78.7784 127.463 80.6493 126.35 82.3142C125.237 83.9791 123.802 85.4043 122.13 86.5057C120.457 87.6072 118.581 88.3626 116.612 88.7274C114.643 89.0923 112.621 89.0592 110.665 88.63C106.715 97.955 101.275 102.515 96.4999 103.685V114.55L103.625 116.33C104.595 116.57 105.51 117.005 106.31 117.605L115.5 124.5C115.92 124.815 116.23 125.254 116.386 125.755C116.543 126.255 116.538 126.793 116.372 127.291C116.206 127.788 115.887 128.221 115.462 128.528C115.036 128.835 114.525 129 114 129H63.9999C63.4752 129 62.9638 128.835 62.5382 128.528C62.1125 128.221 61.7942 127.788 61.6282 127.291C61.4623 126.793 61.4572 126.255 61.6137 125.755C61.7701 125.254 62.0802 124.815 62.4999 124.5L71.6899 117.605C72.4899 117.005 73.4049 116.57 74.3749 116.33L81.4999 114.55V103.685C76.7249 102.515 71.2849 97.955 67.3349 88.625C65.3779 89.0565 63.3542 89.0914 61.3834 88.7277C59.4126 88.364 57.5347 87.6091 55.8605 86.5076C54.1863 85.406 52.7499 83.9801 51.636 82.3141C50.5221 80.6482 49.7533 78.7759 49.3751 76.8078C48.9968 74.8398 49.0168 72.8159 49.4338 70.8557C49.8508 68.8955 50.6563 67.0387 51.8029 65.395C52.9494 63.7513 54.4138 62.3541 56.1093 61.2858C57.8049 60.2174 59.6974 59.4997 61.6749 59.175C61.5572 56.6184 61.4989 54.0593 61.4999 51.5ZM61.9949 64.2C59.3859 64.6774 57.0733 66.1717 55.566 68.3541C54.0587 70.5366 53.4801 73.2284 53.9574 75.8375C54.4348 78.4466 55.9291 80.7591 58.1116 82.2665C60.294 83.7738 62.9859 84.3524 65.5949 83.875C63.9299 78.625 62.6549 72.145 61.9949 64.2ZM112.41 83.875C115.019 84.3524 117.711 83.7738 119.893 82.2665C122.076 80.7591 123.57 78.4466 124.047 75.8375C124.525 73.2284 123.946 70.5366 122.439 68.3541C120.932 66.1717 118.619 64.6774 116.01 64.2C115.345 72.15 114.07 78.625 112.41 83.875Z" fill="#FFAA04" fill-opacity="0.65"/>
<path d="M85.884 84.2002V82.6002H88.744V72.5002L86.064 74.5202L85.084 73.1802L89.224 70.2002H90.544V82.6002H92.924V84.2002H85.884Z" fill="black" fill-opacity="0.4"/>
</g>
<defs>
<clipPath id="clip0_38_6949">
<rect width="80" height="80" fill="white" transform="translate(49 49)"/>
</clipPath>
</defs>
</svg>
