<svg width="74" height="59" viewBox="0 0 74 59" fill="none" xmlns="http://www.w3.org/2000/svg">
<path d="M65.7849 25.1049C65.1883 24.6424 64.4637 24.345 63.6938 24.2466C62.924 24.1481 62.1398 24.2526 61.4308 24.5481L48.238 29.9954L40.5727 17.1639C40.2063 16.5649 39.6755 16.0667 39.0343 15.7201C38.3931 15.3735 37.6644 15.1909 36.9225 15.1909C36.1806 15.1909 35.452 15.3735 34.8108 15.7201C34.1696 16.0667 33.6387 16.5649 33.2724 17.1639L25.607 29.9954L12.4143 24.5481C11.7038 24.253 10.9187 24.1484 10.1475 24.246C9.37638 24.3437 8.65003 24.6397 8.05059 25.1006C7.45114 25.5615 7.00251 26.169 6.7554 26.8543C6.5083 27.5396 6.47257 28.2754 6.65227 28.9785L13.2747 55.1982C13.4013 55.7059 13.6376 56.1843 13.9693 56.6046C14.3009 57.0249 14.721 57.3784 15.2041 57.6435C15.8581 58.007 16.6059 58.1994 17.3681 58.2003C17.7386 58.1997 18.1072 58.1508 18.4631 58.0551C30.5343 54.9561 43.2847 54.9561 55.3558 58.0551C56.458 58.3241 57.6302 58.1761 58.6149 57.6435C59.101 57.3817 59.5233 57.0293 59.8554 56.6085C60.1875 56.1876 60.422 55.7075 60.5443 55.1982L67.1928 28.9785C67.3705 28.2752 67.3328 27.5397 67.084 26.8552C66.8352 26.1707 66.3852 25.5644 65.7849 25.1049Z" fill="#9E9E9E"/>
<circle cx="36.9212" cy="8.6805" r="8.6805" fill="#9E9E9E"/>
<circle cx="36.9213" cy="39.0621" r="6.51037" fill="#BE9502"/>
<circle cx="68.388" cy="22.7862" r="5.42531" fill="#9E9E9E"/>
<circle cx="5.45436" cy="22.7862" r="5.42531" fill="#9E9E9E"/>
<circle cx="20.6453" cy="42.3172" r="3.25519" fill="#BE9502"/>
<circle cx="53.1971" cy="42.3172" r="3.25519" fill="#BE9502"/>
</svg>
